<svg xmlns="http://www.w3.org/2000/svg" xml:space="preserve" fill-rule="evenodd" stroke-linejoin="round" stroke-miterlimit="1.414" clip-rule="evenodd" viewBox="0 0 48 48"><circle cx="24.003" cy="24.004" r="21.925" fill="#fff" style="fill:#448e3a;stroke:none;fill-opacity:1"/><g style="display:inline"><path d="M4.233 2.66c.733 0 1.323-.166 1.323.613v9.442c0 .779-.59 1.587-1.323 1.587s-1.323.167-1.323-.612V4.248c0-.779.59-1.587 1.323-1.587zM12.17 2.66c.734 0 1.324-.166 1.324.613v9.442c0 .779-.59 1.587-1.323 1.587s-1.323.167-1.323-.612V4.248c0-.779.59-1.587 1.323-1.587z" style="display:inline;fill:#8cf287;stroke-width:.293683" transform="matrix(2.14194 0 0 2.14194 6.432 5.833)"/><path d="m5.292 7.688 5.82-.794V9.54l-5.82.794Z" style="display:inline;fill:#8cf287;stroke-width:.283219" transform="matrix(2.14194 0 0 2.14194 6.432 5.833)"/></g></svg>