<svg xmlns="http://www.w3.org/2000/svg" xml:space="preserve" width="256" height="256" fill-rule="evenodd" stroke-linejoin="round" stroke-miterlimit="1.414" clip-rule="evenodd"><circle cx="128" cy="128" r="128" style="fill:#448e3a;fill-opacity:1;stroke:none;stroke-width:8.67528;stroke-linecap:round;stroke-miterlimit:3.9;paint-order:markers fill stroke"/><path d="M102.277 190.354q-1.853.411-5.351 1.029-3.293.617-7.203.617-7.82 0-11.112-2.881-3.087-2.881-3.087-9.672v-113.8q1.646-.412 5.145-1.03Q84.373 64 87.87 64q7.409 0 10.907 2.675 3.499 2.675 3.499 9.878v40.54h51.446V65.646q1.647-.411 5.145-1.029 3.704-.617 7.203-.617 7.408 0 10.906 2.881 3.499 2.675 3.499 9.878v113.595q-1.852.411-5.35 1.029-3.293.617-7.203.617-7.82 0-11.113-2.881-3.087-2.881-3.087-9.672v-40.952h-51.446z" aria-label="H" style="font-weight:600;font-size:217.955px;line-height:1.25;font-family:&quot;Baloo 2&quot;;-inkscape-font-specification:&quot;Baloo 2, Semi-Bold&quot;;letter-spacing:0;word-spacing:0;fill:#8cf287;stroke-width:5.51217"/></svg>