<svg xmlns="http://www.w3.org/2000/svg" xml:space="preserve" id="Layer_1" width="256" height="256" x="0" y="0" version="1.1"><style id="style1" type="text/css">.st0{fill:#ff9700}</style><g id="g22" transform="translate(30.55 25)"><path id="path1" d="M104.92 5.73c-7.64-7.64-20.02-7.64-27.65 0-7.64 7.64-7.64 20.02 0 27.65l21.08 21.08H26.42c-10.8 0-19.55 8.75-19.55 19.55s8.75 19.55 19.55 19.55h29.8L5.73 144.05c-7.64 7.64-7.64 20.02 0 27.65 3.82 3.82 8.82 5.73 13.83 5.73 5 0 10.01-1.91 13.83-5.73l24.42-24.42c9.39 27.84 35.73 47.95 66.7 47.95 38.81 0 70.39-31.58 70.39-70.39 0-18.97-7.55-36.19-19.79-48.86-.28-.29-70.19-70.25-70.19-70.25Zm19.58 150.42c-17.25 0-31.29-14.03-31.29-31.28s14.03-31.28 31.29-31.28c17.25 0 31.28 14.03 31.28 31.28 0 17.24-14.03 31.28-31.28 31.28z" class="st0"/><path id="path11" d="M104.92 6.47c-7.64-7.64-20.02-7.64-27.65 0-7.64 7.64-7.64 20.02 0 27.65L98.35 55.2H26.42c-10.8 0-19.55 8.75-19.55 19.55S15.62 94.3 26.42 94.3h29.8L5.73 144.79c-7.64 7.64-7.64 20.02 0 27.65 3.82 3.82 8.82 5.73 13.83 5.73 5 0 10.01-1.91 13.83-5.73l24.42-24.42c9.39 27.84 35.73 47.95 66.7 47.95 38.81 0 70.39-31.58 70.39-70.39 0-18.97-7.55-36.19-19.79-48.86-.28-.3-70.19-70.25-70.19-70.25zm19.58 150.41c-17.25 0-31.29-14.03-31.29-31.28s14.03-31.28 31.29-31.28c17.25 0 31.28 14.03 31.28 31.28 0 17.24-14.03 31.28-31.28 31.28z" class="st0"/></g></svg>