<svg xmlns="http://www.w3.org/2000/svg" xml:space="preserve" width="256" height="256"><g transform="scale(.40315)"><path d="M592.5 158.8C537.6 63.9 435 0 317.5 0S97.4 63.9 42.5 158.8l113.3 65.4c32.3-55.8 92.6-93.3 161.7-93.3s129.4 37.5 161.7 93.3z" style="fill:#e94638"/><path d="M317.5 635C142.1 635 0 492.9 0 317.5c0-57.8 15.5-112 42.5-158.7l113.3 65.4c-15.9 27.5-25 59.3-25 93.3 0 103.1 83.6 186.7 186.7 186.7z" style="fill:#37a855"/><path d="M317.5 635C492.9 635 635 492.9 635 317.5c0-57.8-15.5-112-42.5-158.7l-113.3 65.4c15.9 27.5 25 59.3 25 93.3 0 103.1-83.6 186.7-186.7 186.7z" style="fill:#fabc08"/><circle cx="317.5" cy="317.5" r="108" style="fill:#4587f3"/></g></svg>