<svg xmlns="http://www.w3.org/2000/svg" fill-rule="evenodd" stroke-linejoin="round" stroke-miterlimit="1.414" clip-rule="evenodd" viewBox="0 0 48 48"><circle cx="24.003" cy="24.004" r="21.925" fill="#fff"/><path d="M24.002 46.003h-.142l-.142-.001-.142-.003-.141-.003-.142-.004-.14-.005-.142-.006-.14-.006-.141-.008-.14-.008-.14-.01-.14-.01-.14-.01-.139-.013-.139-.013-.139-.013-.138-.015-.139-.015-.138-.016-.137-.017-.138-.018-.137-.019-.137-.02-.137-.02-.136-.021-.136-.022-.136-.023-.136-.024-.135-.025-.135-.025-.135-.026-.134-.028-.134-.027-.134-.03-.134-.029-.133-.03-.133-.031-.132-.032-.133-.033-.131-.033-.132-.035-.131-.035-.132-.036-.13-.036-.13-.038-.13-.038-.13-.039-.13-.04-.128-.04-.13-.042-.127-.042-.128-.043-.128-.043-.127-.045-.127-.045-.127-.045-.126-.047-.126-.048-.125-.048-.125-.049-.125-.05-.124-.05-.124-.05-.124-.052-.123-.053-.123-.053-.122-.054-.122-.055-.122-.055-.121-.057-.12-.056-.121-.058-.12-.058-.12-.06-.12-.059-.118-.06-.118-.061-.118-.062-.118-.063-.117-.063-.117-.064-.116-.064-.116-.065-.115-.066-.115-.067-.115-.067-.114-.068-.113-.069-.113-.069-.113-.07-.112-.07-.112-.071-.111-.072-.111-.073-.11-.073-.11-.074-.11-.074-.11-.075-.108-.076-.108-.076-.107-.077-.108-.078-.106-.078-.106-.08-.106-.079-.105-.08-.105-.08-.104-.082-.103-.082-.104-.082-.102-.083-.102-.084-.102-.085-.101-.085-.1-.085-.1-.086-.1-.087-.1-.087-.098-.088-.098-.089-.097-.089-.097-.09-.096-.09-.096-.09-.095-.092-.095-.092-.094-.092-.094-.093-.093-.094-.092-.094-.092-.095-.091-.095-.091-.096-.09-.096-.09-.097-.09-.097-.088-.098-.087-.099-.088-.098-.086-.1-.087-.1-.085-.1-.085-.102-.084-.101-.084-.103-.083-.102-.083-.103-.082-.104-.081-.104-.081-.105-.08-.105-.08-.105-.078-.107-.079-.106-.077-.107-.077-.108-.077-.108-.075-.108-.075-.11-.075-.109-.074-.11-.073-.11-.072-.111-.072-.112-.071-.111-.071-.113-.07-.112-.07-.114-.068-.113-.068-.114-.067-.115-.066-.115-.066-.115-.065-.116-.065-.116-.064-.117-.063-.117-.063-.117-.061-.118-.061-.119-.06-.119-.06-.119-.06-.12-.058-.12-.057-.12-.057-.12-.056-.122-.056-.122-.054-.122-.054-.122-.054-.123-.052-.123-.052-.123-.051-.125-.05-.124-.05-.125-.049-.125-.048-.125-.048-.126-.046-.126-.046-.126-.045-.127-.045-.128-.043-.127-.043-.128-.042-.129-.042-.128-.04-.13-.04-.129-.039-.13-.038-.13-.038-.13-.036-.13-.036-.131-.035-.132-.035-.131-.033-.132-.033-.132-.032-.133-.03-.133-.031-.133-.03-.134-.028-.134-.028-.134-.027-.134-.027-.135-.025-.135-.025-.135-.023-.136-.023-.136-.022-.136-.022-.136-.02-.137-.02-.137-.018-.137-.018-.137-.018-.138-.016-.138-.015-.138-.015-.139-.013-.139-.013-.139-.012-.14-.011-.139-.01-.14-.01-.14-.008-.14-.007-.14-.007-.141-.006-.14-.005-.142-.004-.141-.003-.142-.002-.142-.002-.142v-.285l.002-.142.002-.141.003-.142.004-.141.005-.142.006-.14.007-.141.007-.14.008-.141.01-.14.01-.14.011-.14.012-.139.013-.139.013-.138.015-.139.015-.138.016-.138.018-.138.018-.138.018-.137.02-.137.02-.136.022-.137.022-.136.023-.136.023-.136.025-.135.025-.135.027-.134.027-.135.028-.134.028-.134.03-.133.03-.133.031-.133.032-.133.033-.132.033-.132.035-.132.035-.131.036-.131.036-.13.038-.131.038-.13.04-.13.039-.13.04-.128.042-.129.042-.128.043-.128.043-.128.045-.127.045-.127.046-.126.046-.127.048-.125.048-.126.049-.125.05-.125.05-.124.05-.124.053-.124.052-.123.054-.122.054-.123.054-.122.056-.121.056-.122.057-.12.057-.121.059-.12.059-.12.06-.119.06-.119.06-.118.062-.118.063-.117.063-.118.064-.116.065-.117.065-.115.066-.116.066-.115.067-.114.068-.114.069-.114.07-.113.069-.113.07-.112.072-.112.072-.111.072-.111.073-.11.074-.11.075-.11.075-.109.075-.109.077-.108.077-.107.077-.107.079-.107.078-.106.08-.106.08-.105.08-.104.082-.105.082-.103.083-.103.083-.103.084-.102.084-.102.085-.1.085-.101.087-.1.086-.1.088-.099.087-.098.089-.098.089-.098.09-.097.09-.096.09-.096.092-.095.092-.095.092-.094.093-.093.094-.093.094-.093.095-.092.095-.091.096-.09.096-.091.097-.09.097-.089.098-.088.099-.088.099-.088.1-.086.1-.086.1-.086.101-.085.102-.084.102-.084.102-.083.104-.083.103-.082.104-.08.105-.082.105-.08.106-.08.106-.078.106-.078.108-.078.107-.077.108-.076.109-.076.109-.075.11-.075.11-.073.11-.074.11-.072.112-.072.112-.071.112-.07.113-.07.113-.07.113-.068.114-.068.115-.068.115-.066.115-.066.116-.065.116-.065.117-.064.117-.063.118-.062.118-.062.118-.061.119-.06.12-.06.119-.06.12-.057.12-.058.12-.057.122-.056.122-.055.122-.055.122-.054.123-.053.123-.053.124-.052.124-.051.124-.05.125-.05.125-.049.125-.048.126-.047.126-.047.127-.046.127-.045.127-.044.128-.044.128-.043.128-.042.129-.041.128-.04.13-.04.13-.04.13-.038.13-.037.13-.037.132-.036.13-.035.133-.034.131-.034.133-.033.132-.031.133-.032.133-.03.134-.03.134-.028.134-.028.134-.027.135-.026.135-.026.135-.024.136-.024.136-.023.136-.022.136-.021.137-.02.137-.02.137-.02.138-.017.137-.017.138-.016.139-.016.138-.014.139-.014.14-.013.138-.012.14-.01.14-.01.14-.01.14-.009.14-.007.141-.007.141-.006.141-.005.142-.004.141-.003.142-.002.142-.001h.285l.142.001.142.002.141.003.142.004.14.005.142.006.14.007.141.007.14.009.14.01.14.01.14.01.139.012.139.013.139.014.138.014.139.016.138.016.137.017.138.018.137.019.137.02.137.02.136.02.136.023.136.023.136.024.135.024.135.026.135.026.134.027.134.028.134.029.134.03.133.03.133.03.132.032.133.033.131.034.132.034.131.035.131.036.131.037.13.037.13.038.13.04.13.04.128.04.129.041.128.042.128.043.128.044.127.044.127.045.127.046.126.047.126.047.125.048.125.05.125.049.124.05.124.051.124.052.123.053.123.053.122.054.122.055.122.055.121.056.12.057.121.058.12.058.12.059.12.06.118.06.118.061.118.062.118.062.117.063.117.064.116.065.116.065.115.066.115.066.115.068.113.068.114.068.113.07.113.07.112.07.112.071.111.072.111.072.11.074.11.073.11.075.11.075.108.076.108.076.107.077.108.078.106.078.106.079.106.08.105.08.105.08.104.081.103.082.104.083.102.083.102.084.102.084.101.085.1.086.1.086.1.086.1.088.098.088.098.088.097.09.097.089.096.09.096.09.095.092.095.092.094.093.094.093.093.093.092.094.092.095.091.095.091.096.09.096.09.097.089.098.089.098.087.098.088.099.086.1.087.1.085.1.085.101.084.102.084.102.083.103.083.103.082.103.081.105.081.104.08.105.08.106.078.106.079.107.077.107.077.107.077.108.075.109.075.109.075.11.074.11.073.11.072.11.072.112.071.112.07.112.07.113.07.113.069.114.068.114.067.114.066.115.066.116.065.115.065.117.064.116.063.118.062.117.062.118.061.118.06.12.06.118.06.12.058.12.057.12.057.121.056.122.056.121.054.122.054.123.054.122.052.123.052.124.051.124.05.124.05.125.049.125.048.126.047.125.047.127.046.126.045.127.045.127.043.128.043.128.042.128.041.129.041.129.04.129.039.13.038.13.038.13.036.13.036.132.035.131.035.132.033.132.033.132.032.133.03.133.031.133.03.133.028.134.028.134.027.135.027.134.025.135.024.135.024.136.023.136.022.136.022.137.02.136.02.137.018.137.018.138.017.138.017.138.015.138.014.139.014.138.013.14.012.139.011.14.01.139.01.14.008.14.007.14.007.141.006.141.005.142.004.141.003.142.002.141.002.142v.285l-.002.142-.002.142-.003.142-.004.14-.005.142-.006.141-.007.14-.007.141-.009.14-.009.14-.01.14-.011.14-.012.14-.013.138-.014.139-.014.139-.015.138-.017.138-.017.138-.018.137-.018.137-.02.137-.02.137-.022.136-.022.136-.023.136-.024.136-.024.135-.025.135-.027.135-.027.134-.028.134-.028.134-.03.134-.03.133-.031.133-.032.133-.033.132-.033.132-.035.131-.035.132-.036.13-.036.131-.038.13-.038.13-.04.13-.039.13-.04.129-.042.128-.042.129-.043.128-.043.127-.045.128-.045.127-.046.126-.047.126-.047.126-.048.125-.049.125-.05.125-.05.124-.05.125-.053.123-.052.123-.054.123-.054.122-.054.122-.056.122-.056.121-.057.121-.057.12-.059.12-.059.12-.06.12-.06.118-.06.119-.063.118-.062.117-.063.117-.064.117-.065.116-.065.116-.066.115-.066.115-.067.115-.068.114-.069.113-.07.114-.07.112-.07.113-.07.111-.073.112-.072.11-.073.111-.074.11-.075.11-.075.109-.075.108-.077.108-.077.108-.077.107-.079.106-.078.107-.08.105-.08.105-.08.105-.082.104-.082.104-.083.103-.083.102-.084.103-.084.101-.085.101-.085.1-.087.101-.086.1-.088.098-.087.099-.089.098-.09.097-.089.097-.09.096-.09.096-.092.095-.092.095-.092.094-.093.094-.094.093-.094.092-.095.092-.095.092-.096.09-.096.09-.097.09-.097.09-.098.088-.099.088-.099.087-.1.087-.1.086-.1.085-.101.085-.102.085-.102.084-.102.083-.104.082-.103.082-.104.081-.105.081-.105.08-.106.08-.106.079-.106.078-.108.078-.107.077-.108.076-.109.076-.109.075-.11.074-.11.074-.11.073-.11.073-.112.072-.112.07-.112.071-.113.07-.113.07-.114.068-.113.068-.115.067-.115.067-.115.066-.116.065-.116.064-.117.064-.117.063-.118.063-.118.062-.118.06-.119.061-.12.06-.119.059-.12.058-.12.058-.121.056-.121.057-.122.055-.122.055-.122.054-.123.053-.123.053-.124.051-.124.051-.124.05-.125.05-.125.05-.125.047-.126.048-.126.047-.127.045-.127.045-.127.045-.128.043-.128.043-.128.042-.129.042-.129.04-.129.04-.13.04-.13.037-.13.038-.13.036-.132.036-.13.035-.133.035-.131.033-.133.033-.132.032-.133.031-.133.03-.134.03-.134.029-.134.027-.134.028-.135.026-.135.025-.135.025-.136.024-.136.023-.136.022-.136.02-.137.021-.137.02-.137.019-.138.018-.137.017-.138.016-.139.015-.138.015-.14.013-.138.013-.14.012-.139.011-.14.01-.14.01-.14.008-.14.008-.141.006-.141.006-.141.005-.142.004-.141.003-.142.003h-.142zm0-.075h.142l.142-.002.141-.002.141-.003.141-.004.14-.005.141-.006.14-.007.14-.007.14-.009.14-.009.14-.01.138-.011.14-.012.138-.013.138-.013.138-.015.138-.015.138-.016.137-.017.137-.018.137-.019.136-.02.136-.02.136-.021.136-.022.135-.023.135-.024.135-.024.135-.025.134-.027.134-.027.134-.027.133-.029.133-.03.133-.03.132-.03.132-.032.132-.033.132-.033.13-.035.132-.035.13-.035.13-.037.13-.037.13-.038.13-.04.128-.039.129-.04.128-.042.128-.041.127-.043.127-.044.127-.044.127-.045.126-.045.125-.047.126-.047.125-.048.124-.049.125-.05.124-.05.123-.05.123-.052.123-.052.122-.053.122-.054.122-.055.121-.055.121-.056.12-.057.12-.057.12-.058.12-.059.118-.06.118-.06.118-.06.118-.062.117-.062.117-.063.116-.064.116-.064.115-.065.115-.066.115-.066.114-.067.114-.068.113-.068.113-.07.112-.069.112-.07.111-.071.111-.072.11-.072.11-.073.11-.074.11-.074.108-.075.108-.075.108-.076.107-.077.107-.077.106-.078.106-.079.105-.079.105-.08.104-.08.104-.081.103-.082.103-.082.102-.083.102-.084.101-.084.101-.084.1-.086.1-.085.1-.087.098-.087.098-.087.098-.089.097-.088.096-.09.096-.09.096-.09.095-.091.094-.092.094-.092.093-.093.093-.093.092-.094.092-.094.09-.095.091-.095.09-.096.09-.097.088-.097.088-.098.088-.098.087-.098.086-.1.086-.1.085-.1.085-.1.084-.102.084-.101.082-.102.083-.103.081-.104.082-.103.08-.105.08-.105.079-.105.079-.105.078-.107.077-.106.077-.108.076-.107.075-.109.075-.108.074-.11.074-.109.073-.11.072-.11.072-.111.07-.112.07-.112.07-.112.07-.113.068-.113.067-.114.067-.114.067-.114.065-.115.065-.116.065-.116.063-.116.063-.117.063-.117.061-.117.061-.118.06-.119.06-.118.058-.12.059-.12.057-.12.057-.12.056-.12.055-.122.054-.121.054-.122.053-.123.053-.122.051-.124.051-.123.05-.124.05-.124.049-.125.048-.125.047-.125.046-.126.046-.126.045-.127.044-.126.044-.128.042-.127.042-.128.041-.128.04-.129.04-.129.04-.129.037-.13.038-.13.036-.13.036-.13.035-.13.034-.132.034-.132.032-.131.032-.133.031-.132.03-.133.03-.133.028-.133.028-.134.027-.134.026-.134.026-.135.024-.134.024-.135.023-.136.022-.135.02-.136.021-.137.02-.136.019-.137.017-.137.017-.137.017-.138.015-.138.014-.138.014-.138.013-.138.012-.14.01-.138.01-.14.01-.14.008-.139.008-.14.007-.14.005-.14.005-.141.004-.141.004-.142.002-.14.001-.142v-.284l-.001-.142-.002-.141-.004-.141-.004-.141-.005-.14-.005-.141-.007-.14-.008-.14-.008-.14-.01-.14-.01-.139-.01-.14-.012-.138-.013-.138-.014-.139-.014-.138-.015-.138-.017-.137-.017-.138-.017-.137-.02-.136-.019-.137-.02-.136-.021-.136-.022-.136-.023-.135-.024-.135-.024-.135-.026-.135-.026-.134-.027-.134-.028-.133-.028-.134-.03-.133-.03-.133-.031-.132-.032-.132-.032-.132-.034-.131-.034-.132-.035-.13-.036-.131-.036-.13-.038-.13-.038-.13-.039-.129-.04-.129-.04-.128-.04-.128-.043-.128-.042-.128-.044-.127-.044-.127-.045-.126-.046-.126-.046-.126-.047-.126-.048-.125-.05-.124-.049-.125-.05-.123-.05-.124-.052-.123-.053-.123-.053-.122-.054-.122-.054-.122-.055-.12-.056-.122-.057-.12-.057-.12-.059-.12-.058-.119-.06-.119-.06-.118-.06-.118-.062-.118-.063-.117-.063-.117-.063-.116-.065-.116-.065-.115-.065-.115-.067-.115-.067-.114-.067-.113-.069-.114-.069-.112-.07-.113-.07-.112-.07-.111-.072-.111-.072-.11-.073-.11-.074-.11-.074-.11-.075-.108-.075-.108-.076-.108-.077-.107-.077-.107-.078-.106-.079-.106-.08-.105-.08-.105-.08-.104-.08-.104-.082-.103-.083-.103-.082-.102-.084-.102-.084-.101-.085-.101-.085-.1-.086-.1-.086-.1-.087-.098-.088-.098-.088-.098-.089-.097-.09-.096-.089-.096-.09-.096-.091-.094-.092-.095-.092-.094-.093-.093-.093-.093-.094-.092-.094-.091-.095-.091-.096-.09-.096-.09-.096-.09-.097-.089-.098-.088-.098-.088-.099-.087-.099-.086-.1-.086-.1-.085-.1-.085-.102-.084-.102-.083-.102-.083-.103-.082-.103-.082-.104-.081-.104-.08-.105-.08-.105-.08-.106-.078-.106-.078L36.8 6.2l-.107-.076-.108-.076-.108-.076-.109-.075-.109-.074-.11-.074-.11-.072-.11-.073-.11-.071-.112-.071-.112-.07-.112-.07-.113-.07-.113-.068-.114-.067-.114-.067-.115-.067-.115-.065-.115-.065-.116-.064-.116-.064-.117-.063-.117-.062-.118-.062-.118-.06-.118-.061-.119-.06-.119-.058-.12-.058-.12-.058-.12-.056-.12-.056-.122-.056-.122-.054-.122-.054-.122-.053-.123-.052-.123-.052-.123-.05-.124-.051-.125-.05-.124-.048-.125-.048-.126-.048-.125-.046-.126-.046-.127-.045-.127-.044-.127-.043-.127-.043-.128-.042-.128-.041-.129-.04-.129-.04-.13-.04-.129-.037-.13-.038-.13-.036-.13-.036-.131-.035-.131-.034-.132-.033-.132-.033-.132-.032-.132-.03-.133-.031-.133-.03-.133-.028-.134-.028-.134-.027-.134-.026-.135-.025-.135-.025-.135-.024-.135-.022-.136-.022-.136-.022-.136-.02-.136-.02-.137-.018-.137-.018-.137-.017-.138-.016-.138-.016-.138-.014-.138-.014-.139-.012-.139-.012-.139-.011-.139-.01-.14-.01-.14-.008-.14-.008-.14-.006-.14-.006-.14-.005-.142-.004-.14-.003-.142-.002-.142-.002h-.283l-.142.002-.141.002-.141.003-.141.004-.141.005-.14.006-.14.006-.14.008-.14.008-.14.01-.14.01-.138.01-.14.013-.138.012-.138.014-.138.014-.138.016-.138.016-.137.017-.137.018-.137.018-.136.02-.136.02-.136.022-.136.022-.135.022-.135.024-.135.025-.135.025-.134.026-.134.027-.134.028-.133.029-.133.029-.133.03-.132.031-.132.032-.132.033-.132.033-.13.034-.132.035-.13.036-.13.036-.13.038-.13.038-.13.039-.128.04-.129.04-.128.041-.128.042-.127.043-.127.043-.127.044-.127.045-.126.046-.125.046-.126.048-.125.048-.124.048-.125.05-.124.05-.123.051-.123.052-.123.052-.122.053-.122.054-.122.054-.121.056-.121.056-.12.056-.12.058-.12.058-.12.059-.118.059-.119.06-.117.061-.118.062-.117.062-.117.063-.116.064-.116.064-.115.065-.115.065-.115.067-.114.067-.114.067-.113.069-.113.069-.112.07-.112.07-.111.07-.111.072-.11.073-.11.072-.11.074-.11.074-.108.075-.108.076-.108.076-.107.076-.107.078-.106.078-.106.078-.105.08-.105.08-.104.08-.104.08-.103.083-.103.082-.103.083-.101.083-.102.084-.1.085-.1.085-.1.086-.1.086-.098.087-.098.088-.098.088-.097.089-.096.09-.096.09-.096.09-.095.09-.094.092-.094.092-.093.093-.093.093-.092.094-.092.095-.09.094-.091.096-.09.096-.09.096-.088.097-.088.098-.088.098-.087.099-.086.1-.086.099-.085.1-.085.1-.084.102L7 10.16l-.083.102-.082.103-.081.103-.082.104-.08.104-.08.105-.08.105-.078.106-.078.106-.077.107-.077.107-.076.108-.075.108-.075.109-.074.109-.074.11-.073.11-.072.11-.072.11-.07.112-.07.112-.07.113-.07.112-.068.114-.067.113-.068.114-.066.115-.066.115-.065.115-.064.116-.063.116-.063.117-.063.117-.061.118-.061.118-.06.118-.06.119-.059.12-.058.119-.057.12-.057.12-.056.121-.055.121-.054.122-.054.122-.053.122-.053.123-.051.123-.051.124-.05.123-.05.125-.049.124-.048.125-.047.126-.046.126-.046.126-.045.126-.044.127-.044.127-.042.128-.042.128-.041.128-.041.128-.04.13-.038.128-.039.13-.037.13-.036.13-.036.13-.035.131-.034.132-.034.131-.032.132-.032.132-.031.132-.03.133-.03.133-.028.134-.028.133-.027.134-.026.134-.026.135-.024.135-.024.135-.023.135-.022.136-.02.136-.021.136-.02.137-.019.136-.017.137-.017.138-.017.137-.015.138-.014.138-.014.139-.013.138-.012.139-.01.139-.01.14-.01.139-.009.14-.007.14-.007.14-.005.14-.005.14-.004.142-.004.141-.002.141-.001.142v.284l.001.141.002.141.004.142.004.14.005.141.005.14.007.141.007.14.009.14.01.14.01.139.01.139.012.139.013.138.014.138.014.138.015.138.017.138.017.137.017.137.02.137.019.136.02.137.021.136.022.135.023.136.024.135.024.134.026.135.026.134.027.134.028.134.028.133.03.133.03.133.03.132.033.133.032.131.034.132.034.131.035.131.036.13.036.13.037.13.039.13.038.13.04.128.04.129.042.128.042.128.042.127.044.128.044.126.045.127.046.126.046.126.047.125.048.125.05.125.049.124.05.124.05.123.052.124.053.122.053.123.054.122.054.121.055.121.056.121.057.12.057.12.058.12.06.12.059.118.06.119.06.118.062.117.063.117.063.117.063.116.064.116.065.116.066.115.066.114.068.114.067.114.069.113.069.113.07.112.07.112.07.112.072.11.072.111.073.11.074.11.074.109.075.108.075.109.076.107.077.108.077.106.078.107.079.105.08.105.08.105.08.105.08.103.082.104.082.103.083.102.084.101.084.102.085.1.085.1.086.1.086.1.087.098.088.098.088.098.089.097.089.097.09.096.09.095.091.095.092.094.092.094.093.093.093.093.094.092.094.092.095.09.096.091.096.09.096.09.097.088.098.089.098.087.099.087.099.087.1.085.1.086.1.084.102.084.101.084.103.083.103.082.103.082.104.08.104.081.105.08.105.08.106.078.106.078.107.077.107.077.108.076.108.075.108.075.11.074.11.074.11.073.11.072.11.072.112.07.112.071.112.07.113.069.113.068.114.068.114.067.115.066.115.066.115.065.116.064.116.064.117.063.117.062.118.061.117.061.119.06.119.06.119.059.12.058.12.057.12.057.12.056.122.055.122.055.122.054.122.053.123.052.123.052.123.05.124.05.125.05.124.049.125.048.126.047.125.047.126.045.127.045.127.044.127.044.127.043.128.041.128.042.129.04.129.04.13.039.129.038.13.037.13.037.13.035.131.035.131.035.132.033.132.033.132.031.132.031.133.03.133.03.133.029.134.027.134.027.134.027.135.025.135.024.135.024.135.023.136.022.136.021.136.02.136.02.137.019.137.018.137.017.138.016.138.015.138.015.138.013.139.013.139.012.139.01.139.011.14.01.14.008.14.007.14.007.14.006.14.005.142.004.14.003.142.002.142.001z"/><path fill="#232c31" fill-rule="nonzero" d="M27.12 11.772c1.37 0 2.626.456 3.253 1.241 1.542-1.555 2.983-1.983 4.224-1.983 1.998 0 2.626 1.27 2.626 2.112 0 1.056-.67 1.798-1.684 1.798-1.099 0-.556-2.512-2.112-2.512-1.27 0-2.326 3.354-2.854 6.279h2.74c.314 0 .371.228.371.47 0 .657-.3 1.214-.842 1.214h-2.697s-1.24 5.867-2.155 9.532c-1.231 4.933-5.008 6.307-7.377 6.307-1.128 0-2.326-.4-3.125-1.227-1.07 1.099-2.697 1.97-4.438 1.97-.856 0-2.283-.571-2.283-1.656 0-.613.613-1.541 1.27-1.541 1.155 0 1.298 1.256 2.597 1.256.628 0 1.063-.173 1.584-2.055 1.141-4.124 2.868-12.586 2.868-12.586h-2.04c-.329 0-.372-.2-.372-.414 0-.57.214-1.27.942-1.27h1.898c1.042-3.582 3.353-6.935 7.606-6.935zm-1.113 1.427c-2.012 0-2.925 3.339-3.368 5.508h4.766a16.55 16.55 0 0 1 1.527-3.753c-.685-1.085-1.87-1.755-2.925-1.755zm-4.281 21.29c1.113 0 1.998-.37 2.54-2.311 1.284-4.624 2.711-11.787 2.711-11.787h-4.709c-.684 3.157-1.438 6.561-2.1 9.118-.451 1.74-.83 2.718-1.225 3.54.814.955 1.87 1.44 2.783 1.44z"/></svg>