<svg xmlns="http://www.w3.org/2000/svg" width="256" height="256" fill-rule="evenodd" stroke-linejoin="round" stroke-miterlimit="1.414" clip-rule="evenodd"><g transform="translate(-1.183)"><circle cx="129.183" cy="128" r="123.44" style="fill:#f2f2f2;fill-opacity:1;stroke:#232c31;stroke-width:9.1197;stroke-linecap:round;stroke-miterlimit:3.9;stroke-dasharray:none;paint-order:markers fill stroke"/><path fill="#232c31" fill-rule="nonzero" d="M146.977 58.81c7.821 0 14.991 2.58 18.57 7.02 8.803-8.796 17.03-11.217 24.114-11.217 11.406 0 14.992 7.184 14.992 11.946 0 5.974-3.825 10.17-9.614 10.17-6.274 0-3.174-14.208-12.057-14.208-7.25 0-13.278 18.971-16.293 35.517h15.642c1.793 0 2.118 1.29 2.118 2.658 0 3.716-1.712 6.867-4.807 6.867h-15.396s-7.079 33.187-12.302 53.918c-7.028 27.903-28.59 35.675-42.114 35.675-6.44 0-13.278-2.262-17.84-6.94-6.108 6.216-15.396 11.143-25.335 11.143-4.887 0-13.033-3.23-13.033-9.367 0-3.468 3.5-8.717 7.25-8.717 6.594 0 7.41 7.105 14.826 7.105 3.585 0 6.068-.979 9.042-11.624 6.514-23.328 16.373-71.193 16.373-71.193H89.467c-1.878 0-2.124-1.131-2.124-2.342 0-3.224 1.222-7.183 5.378-7.183h10.835c5.949-20.262 19.142-39.228 43.421-39.228zm-6.354 8.072c-11.486 0-16.698 18.887-19.227 31.156h27.208a94.48 93.615 0 0 1 8.717-21.23c-3.91-6.136-10.675-9.926-16.698-9.926zm-24.439 120.426c6.354 0 11.406-2.093 14.5-13.072 7.33-26.156 15.477-66.673 15.477-66.673h-26.883c-3.905 17.858-8.209 37.112-11.988 51.576-2.575 9.842-4.739 15.374-6.993 20.024 4.646 5.402 10.675 8.145 15.887 8.145z" style="stroke:#232c31;stroke-width:8.00002;stroke-dasharray:none;stroke-opacity:1"/></g></svg>