<svg xmlns="http://www.w3.org/2000/svg" xml:space="preserve" width="256" height="256" viewBox="0 0 67.733 67.734"><path d="M28.593 67.534c-5.954-.685-12.34-2.933-16.238-5.714-3.09-2.204-5.593-5.13-7.093-8.288-.799-1.682-1.836-4.87-1.646-5.06.095-.096 7.635 1.792 7.958 1.99.117.074.742 1.671 1.387 3.55l1.174 3.418 1.124.216c2.934.567 10.621 1.517 10.892 1.346.066-.042.66-1.47 1.32-3.172l1.197-3.095H40.1l.605 1.563 1.226 3.179c.435 1.124.726 1.614.959 1.612 1.983-.011 11.346-1.366 11.658-1.687.122-.125.737-1.726 1.37-3.558l1.146-3.33 3.778-.937c2.078-.515 3.82-.897 3.872-.847.233.221-.705 2.99-1.7 5.013-3.689 7.511-11.547 12.286-22.573 13.718-2.596.337-9.236.383-11.847.083zM22.64 55.558c-.112-.038-1.446-.23-2.968-.424-1.52-.196-2.86-.415-2.979-.488-.118-.073-.75-1.67-1.401-3.55l-1.186-3.417-2.494-.556c-1.372-.305-3.835-.93-5.472-1.386l-2.977-.83.001-6.486c.002-7.007.172-8.841 1.1-11.761l.496-1.563-.857-.92c-1.198-1.285-2.04-2.56-2.966-4.5-1.334-2.792-1.433-2.423 1.63-6.117l2.667-3.219.901.063c1.388.096 4.226.978 5.969 1.855l1.573.792 1.68-1.153 1.68-1.153.106-2.926c.072-1.96.231-3.356.48-4.225l.374-1.296 4.138-1.15L26.272 0l.504.421c1.05.876 2.704 2.91 3.507 4.313l.833 1.457 2.968.006 2.968.006.8-1.362c.89-1.516 2.952-4.046 3.687-4.524.442-.286.755-.23 4.512.806 2.22.612 4.094 1.2 4.164 1.304.4.597.863 3.698.873 5.831l.009 2.357.605.346c.333.19 1.072.69 1.643 1.113l1.037.768 1.385-.686c1.596-.791 4.467-1.662 5.78-1.753l.9-.063 2.668 3.218c2.435 2.938 2.657 3.272 2.544 3.835-.222 1.113-1.877 4.24-3.04 5.746l-1.143 1.478.523 1.64c1.068 3.36 1.16 4.204 1.267 11.784.055 3.913.049 7.114-.016 7.114s-1.073.276-2.24.613c-1.167.337-3.496.924-5.175 1.303-1.68.38-3.085.721-3.123.76-.038.038-.605 1.608-1.26 3.49l-1.191 3.42-2.903.435c-1.597.239-3.32.443-3.831.454l-.928.02-1.181-3.078-1.182-3.078H26.564l-1.186 3.028-1.186 3.027-.675.04c-.371.021-.767.007-.877-.031zm-1.87-11.156c1.415-.623 2.768-2.013 3.3-3.39.32-.833.386-1.531.386-4.13 0-3.02-.02-3.17-.567-4.282-.7-1.427-2.034-2.632-3.54-3.196-.903-.34-1.477-.414-2.755-.357-2.742.122-4.827 1.427-5.874 3.676-.442.95-.48 1.284-.482 4.277-.001 3.223.003 3.257.618 4.488 1.582 3.165 5.461 4.434 8.913 2.914zm32.56-.045c1.417-.646 2.505-1.682 3.16-3.01.424-.861.46-1.2.46-4.365 0-3.202-.032-3.495-.478-4.392-.632-1.272-2.195-2.648-3.62-3.185-1.5-.567-3.883-.485-5.388.185-1.186.527-2.579 1.814-3.196 2.952-.402.743-.437 1.097-.437 4.44 0 3.4.03 3.688.462 4.499 1.695 3.174 5.631 4.426 9.037 2.876z" style="fill:#478cbf;fill-opacity:1;stroke-width:.762798"/></svg>