<svg xmlns="http://www.w3.org/2000/svg" xml:space="preserve" width="256mm" height="256mm" viewBox="0 0 256 256"><path d="M199.544 98.569c-5.661 0-11.323.648-15.886 1.943-20.7 5.88-37.24 22.612-42.47 42.96-2.222 8.646-5.273 7.79 27.771 7.79 33.452 0 37.325.477 48.959 6.026 12.744 6.08 21.861 15.105 28.323 28.038 1.843 3.69 3.617 6.545 3.942 6.345 1.227-.759 6.468-12.454 7.863-17.547 2.27-8.292 2.075-23.93-.4-31.808-6.625-21.098-21.63-35.956-42.216-41.804-4.563-1.295-10.224-1.943-15.886-1.943zm-7.379 18.463a7.687 7.687 0 0 1 7.688 7.687 7.687 7.687 0 0 1-7.688 7.688 7.687 7.687 0 0 1-7.687-7.688 7.687 7.687 0 0 1 7.687-7.687z" style="fill:#fd0;fill-opacity:1;stroke-width:3.08607" transform="rotate(180 163.779 177.284)"/><path d="M237.135 224.176c11.425-7.046 21.437-16.947 27.35-27.048 3.989-6.814 8.1-17.428 8.952-23.113.871-5.807 1.173-6.02 6.235-4.39 5.565 1.793 12.094 5.39 17.958 9.893 4.868 3.74 11.328 10.903 11.328 12.564 0 2.154-6.013 12.262-9.867 16.586-5.579 6.26-14.845 12.279-23.027 14.96-6.286 2.06-7.836 2.218-24.67 2.516l-17.964.317z" style="fill:#0079e7;fill-opacity:1;stroke-width:3.08607" transform="rotate(180 163.779 177.284)"/><path d="M82.755 247.816c-2.072-5.475-3.987-15.323-4.028-20.714-.046-6.135 2.193-17.09 4.773-23.346 8.147-19.756 26.528-33.96 47.769-36.915 3.486-.485 16.062-.881 27.949-.881 20.083 0 21.84-.117 24.85-1.653 1.78-.908 3.692-2.378 4.246-3.266.824-1.32 1.904-1.611 5.915-1.602 20.086.05 40.207 14.822 47.103 34.581 1.443 4.136 1.68 5.752 1.003 6.844-1.662 2.682-10.339 9.096-16.16 11.947-11.504 5.632-11.302 5.61-56.434 6.21-44.942.6-44.855.59-56.34 6.045-10.614 5.04-20.41 13.938-26.174 23.774-1.183 2.02-2.274 3.671-2.423 3.671-.15 0-1.072-2.113-2.05-4.695z" style="fill:#fd0;fill-opacity:1;stroke-width:3.08607" transform="rotate(180 163.779 177.284)"/><path d="m149.48 260.518-2.649 4.673c-8.198 14.465-9.767 33.21-4.135 49.406 3.057 8.79 6.699 14.32 14.797 22.473 8.306 8.361 16.372 13.149 26.725 15.861 8.277 2.169 21.933 2.186 30.331.038 20.759-5.309 38.07-22.427 43.345-42.86 2.228-8.63 4.988-7.79-25.63-7.79-14.787 0-29.738-.397-33.224-.881-13.036-1.814-25.68-8.199-34.801-17.574-5.77-5.93-8.088-9.299-11.839-17.196zm57.86 60.456a7.687 7.687 0 0 1 7.688 7.687 7.687 7.687 0 0 1-7.688 7.687 7.687 7.687 0 0 1-7.687-7.687 7.687 7.687 0 0 1 7.687-7.687z" style="fill:#0079e7;fill-opacity:1;stroke-width:3.08607" transform="rotate(180 163.779 177.284)"/><path d="M118.109 283.193c-7.319-2.716-13.475-6.637-20.138-12.826-8.594-7.984-8.68-8.257-4.887-15.522 4.195-8.036 13.335-17.203 21.296-21.358 9.974-5.205 15.977-6.288 34.856-6.288h16.385l-5.177 3.062c-17.376 10.278-30.622 29.052-34.675 49.148-.583 2.893-1.4 5.353-1.815 5.466-.415.114-3.046-.643-5.845-1.682z" style="fill:#fd0;fill-opacity:1;stroke-width:3.08607" transform="rotate(180 163.779 177.284)"/><path d="M195.55 292.848c-6.734-1.473-15.58-5.795-21.547-10.528-8.04-6.377-16.234-19.208-17.303-27.095-.403-2.974-.207-3.303 4.132-6.945 2.505-2.103 7.371-5.282 10.814-7.065 12.13-6.282 10.551-6.094 56.068-6.706 34-.457 41.69-.774 45.997-1.895 15.485-4.029 28.58-13.307 36.867-26.122 1.918-2.965 3.778-5.21 4.136-4.99.942.584 3.819 9.8 4.817 15.436 5.341 30.154-14.838 60.62-45.202 68.245-5.69 1.43-9.234 1.623-29.803 1.627-13.937.003-24.601.353-26.464.87-1.716.477-4.516 2.128-6.223 3.67-2.687 2.428-3.637 2.793-7.087 2.722-2.19-.045-6.332-.596-9.203-1.224z" style="fill:#0079e7;fill-opacity:1;stroke-width:3.08607" transform="rotate(180 163.779 177.284)"/></svg>